<svg xmlns="http://www.w3.org/2000/svg" version="1.0" width="296.000000pt" height="82.000000pt" viewBox="0 0 296.000000 82.000000" preserveAspectRatio="xMidYMid meet">

<g transform="translate(0.000000,82.000000) scale(0.100000,-0.100000)" fill="#000000" stroke="none">
<path fill="rgb(189 0 0)" d="M97 803 c-11 -18 -55 -213 -67 -298 -6 -44 -14 -154 -17 -245 l-6 -165 89 -39 88 -39 176 -5 c97 -2 210 -1 253 2 l77 8 0 128 c0 143 -15 239 -60 381 -16 51 -33 118 -36 147 -6 44 -4 52 10 52 19 0 21 29 3 54 -11 15 -41 18 -258 23 -168 4 -248 3 -252 -4z m301 -63 c11 -18 10 -20 -16 -20 -35 0 -45 9 -31 27 16 19 32 16 47 -7z m91 -233 c58 -35 83 -117 61 -199 -23 -81 -118 -106 -184 -48 -44 39 -59 86 -54 161 8 110 80 145 177 86z"/>
<path fill="#fff" d="M431 471 c-7 -5 -21 -6 -31 -4 -25 7 -36 -16 -17 -34 17 -18 37 -10 37 15 1 14 4 13 20 -7 20 -23 56 -23 48 1 -7 20 -42 38 -57 29z"/>
<path fill="#fff" d="M350 380 c0 -20 5 -30 15 -30 21 0 37 34 23 48 -21 21 -38 13 -38 -18z"/>
<path fill="#fff" d="M492 392 c-18 -12 -4 -42 20 -42 14 0 19 6 16 22 -3 24 -17 32 -36 20z"/>
<path fill="#fff" d="M456 335 c-8 -22 11 -38 37 -31 40 10 41 33 2 38 -20 2 -36 -1 -39 -7z"/>
<path fill="#fff" d="M360 331 c0 -12 20 -27 48 -35 19 -6 22 -4 22 18 0 23 -4 26 -35 26 -19 0 -35 -4 -35 -9z"/>
<path fill="#fff" d="M1787 753 c-4 -3 -7 -127 -7 -275 l0 -268 55 0 c42 0 55 3 55 15 0 19 5 19 33 1 42 -28 98 -29 147 -4 36 18 51 34 71 77 l27 54 7 -32 c21 -97 150 -150 230 -95 25 18 35 18 35 -1 0 -11 12 -15 50 -15 l50 0 0 160 0 160 -49 0 c-28 0 -51 -5 -53 -11 -3 -8 -14 -7 -35 5 -18 9 -54 16 -80 16 -66 0 -108 -28 -138 -91 l-23 -51 -11 34 c-6 19 -27 49 -46 68 -28 27 -44 34 -89 38 -38 3 -64 -1 -87 -12 -17 -9 -34 -16 -36 -16 -1 0 -3 56 -3 125 l0 125 -48 0 c-27 0 -52 -3 -55 -7z m223 -313 c10 -5 23 -24 29 -41 22 -64 -39 -124 -100 -99 -34 15 -49 37 -49 76 0 56 67 92 120 64z m405 -15 c31 -30 32 -66 2 -101 -17 -20 -33 -27 -57 -27 -39 0 -80 40 -80 79 0 35 42 74 80 74 19 0 40 -9 55 -25z"/>
<path fill="#fff" d="M1242 730 c-40 -17 -46 -88 -9 -112 40 -25 97 6 97 53 0 30 -9 43 -37 58 -25 13 -21 13 -51 1z"/>
<path fill="#fff" d="M820 470 l0 -260 108 0 c129 0 176 12 219 55 29 29 33 40 33 84 0 68 -21 106 -65 122 -38 14 -44 24 -20 33 26 10 47 74 40 121 -12 80 -61 105 -211 105 l-104 0 0 -260z m193 152 c37 -32 3 -92 -53 -92 -30 0 -30 1 -30 53 0 30 3 57 6 60 10 10 56 -3 77 -21z m32 -212 c8 -7 15 -27 15 -46 0 -42 -30 -64 -87 -64 l-43 0 0 66 0 67 50 -5 c27 -3 56 -11 65 -18z"/>
<path fill="#fff" d="M1432 520 c-49 -30 -72 -75 -72 -143 0 -32 7 -71 15 -86 37 -73 123 -106 203 -78 l42 15 0 -28 c0 -60 -90 -91 -143 -50 l-26 21 -41 -21 c-22 -11 -40 -24 -40 -28 0 -16 43 -54 76 -68 53 -22 153 -18 204 9 73 39 80 62 80 279 l0 188 -55 0 c-31 0 -55 -4 -55 -10 0 -6 -13 -4 -30 5 -41 21 -118 19 -158 -5z m169 -89 c16 -13 23 -29 23 -54 0 -60 -48 -95 -104 -76 -53 19 -66 76 -29 123 25 32 75 35 110 7z"/>
<path fill="#fff" d="M2652 520 c-49 -30 -72 -75 -72 -143 0 -32 7 -71 15 -86 37 -73 123 -106 203 -78 l42 15 0 -28 c0 -60 -90 -91 -143 -50 l-26 21 -41 -21 c-22 -11 -40 -24 -40 -28 0 -16 43 -54 76 -68 53 -22 153 -18 204 9 73 39 80 62 80 279 l0 188 -55 0 c-31 0 -55 -4 -55 -10 0 -6 -13 -4 -30 5 -41 21 -118 19 -158 -5z m169 -89 c16 -13 23 -29 23 -54 0 -60 -48 -95 -104 -76 -53 19 -66 76 -29 123 25 32 75 35 110 7z"/>
<path fill="#fff" d="M1210 370 l0 -160 55 0 55 0 0 160 0 160 -55 0 -55 0 0 -160z"/>
</g>
</svg>